<svg width="350" height="230" viewBox="0 0 350 230" fill="none" xmlns="http://www.w3.org/2000/svg">
<rect width="350" height="230" fill="white"/>
<mask id="mask0_917_5123" style="mask-type:alpha" maskUnits="userSpaceOnUse" x="0" y="0" width="350" height="230">
<rect width="350" height="230" fill="#D9D9D9"/>
</mask>
<g mask="url(#mask0_917_5123)">
<rect x="171.092" y="78.5601" width="111.168" height="33.4281" fill="#F8F8F6" stroke="#DBDBDB" stroke-width="0.777397"/>
<path d="M51.2432 76.8755L52.3105 115.905C66.7688 116.185 99.5732 116.759 115.124 116.82C130.675 116.881 151.13 115.168 159.414 114.304L158.499 78.0187L51.2432 76.8755Z" fill="#E4E4E4" stroke="#E9E9E8" stroke-width="0.777397"/>
<path d="M51.2432 20.2363L52.3105 59.2661C66.7688 59.5456 99.5732 60.1198 115.124 60.1807C130.675 60.2417 151.13 58.529 159.414 57.665L158.499 21.3795L51.2432 20.2363Z" fill="#F8F8F6" stroke="#E9E9E8" stroke-width="0.777397"/>
<path d="M95.7884 97.7795H94.9275V91.6712H95.7884V97.7795ZM96.9773 95.0146H95.5242V94.2994H96.9773V95.0146ZM94.2442 93.3156H89.384V92.6232H94.2442V93.3156ZM91.8164 93.7118C92.2051 93.7118 92.5482 93.7756 92.8458 93.9032C93.1464 94.0307 93.3788 94.2114 93.5427 94.4452C93.7098 94.679 93.7948 94.9493 93.7978 95.256C93.7948 95.5597 93.7098 95.8269 93.5427 96.0577C93.3788 96.2885 93.1464 96.4677 92.8458 96.5952C92.5482 96.7197 92.2051 96.782 91.8164 96.782C91.4246 96.782 91.0784 96.7197 90.7778 96.5952C90.4772 96.4677 90.2434 96.2885 90.0763 96.0577C89.9124 95.8269 89.8304 95.5597 89.8304 95.256C89.8304 94.9493 89.9124 94.679 90.0763 94.4452C90.2434 94.2114 90.4772 94.0307 90.7778 93.9032C91.0784 93.7756 91.4246 93.7118 91.8164 93.7118ZM91.8164 94.386C91.5856 94.386 91.3821 94.4209 91.206 94.4908C91.0329 94.5576 90.8993 94.6578 90.8051 94.7914C90.711 94.922 90.6639 95.0768 90.6639 95.256C90.6639 95.4321 90.711 95.584 90.8051 95.7115C90.8993 95.8391 91.0329 95.9378 91.206 96.0076C91.3821 96.0774 91.5856 96.1108 91.8164 96.1078C92.0441 96.1108 92.2461 96.0774 92.4222 96.0076C92.6014 95.9378 92.738 95.8391 92.8321 95.7115C92.9293 95.584 92.9794 95.4321 92.9825 95.256C92.9794 95.0768 92.9293 94.922 92.8321 94.7914C92.738 94.6578 92.6014 94.5576 92.4222 94.4908C92.2461 94.4209 92.0441 94.386 91.8164 94.386ZM92.2491 92.9739H91.3882V91.6666H92.2491V92.9739ZM96.1346 99.6653H90.6184V98.9502H96.1346V99.6653ZM91.4747 99.2462H90.6184V97.3012H91.4747V99.2462ZM103.827 95.0556H98.1561V94.3496H103.827V95.0556ZM104.674 96.9004H97.2041V96.1852H104.674V96.9004ZM101.336 99.8247H100.47V96.5815H101.336V99.8247ZM99.017 94.7003H98.1561V92.0675H99.017V94.7003ZM111.807 99.8475H110.946V91.6621H111.807V99.8475ZM106.195 97.1646C106.945 97.1707 107.634 97.1524 108.263 97.1099C108.891 97.0674 109.546 96.9915 110.226 96.8822L110.313 97.5928C109.629 97.7051 108.966 97.7826 108.322 97.8251C107.681 97.8645 106.972 97.8843 106.195 97.8843H105.498V97.1646H106.195ZM109.311 95.3836H106.382V97.4379H105.498V94.6912H108.436V93.106H105.484V92.4H109.311V95.3836ZM116.898 93.0013H113.295V92.2816H116.898V93.0013ZM115.327 96.167H114.471V94.1172H115.327V96.167ZM117.409 92.7963C117.405 93.2062 117.392 93.5904 117.368 93.9487C117.343 94.307 117.289 94.7064 117.204 95.1467L116.343 95.0784C116.431 94.635 116.487 94.2478 116.511 93.9168C116.539 93.5858 116.555 93.2214 116.561 92.8236V92.7416V92.2816H117.409V92.7416V92.7963ZM119.322 97.7932H118.438V91.6621H119.322V97.7932ZM120.447 94.9964H118.948V94.2676H120.447V94.9964ZM119.586 99.6653H114.033V98.9502H119.586V99.6653ZM114.903 99.1779H114.033V97.2466H114.903V99.1779ZM112.794 95.8527C113.769 95.8527 114.682 95.836 115.532 95.8026C116.385 95.7662 117.184 95.6948 117.928 95.5885L117.973 96.2217C117.214 96.3553 116.412 96.4449 115.568 96.4904C114.727 96.5329 113.83 96.5557 112.876 96.5588L112.794 95.8527Z" fill="#9B9B9B"/>
<path d="M218.898 98.0132H211.428V97.3117H218.898V98.0132ZM215.55 97.5258H214.694V95.3575H215.55V97.5258ZM215.422 92.0232C215.422 92.5911 215.269 93.118 214.962 93.6039C214.656 94.0897 214.246 94.4997 213.732 94.8337C213.219 95.1647 212.662 95.3894 212.061 95.5079L211.683 94.7927C212.202 94.7047 212.691 94.5225 213.149 94.2461C213.608 93.9698 213.974 93.6373 214.247 93.2486C214.524 92.8568 214.662 92.4484 214.662 92.0232V91.4174H215.422V92.0232ZM215.573 92.0232C215.573 92.4484 215.711 92.8568 215.987 93.2486C216.267 93.6373 216.636 93.9698 217.094 94.2461C217.556 94.5225 218.048 94.7047 218.57 94.7927L218.192 95.5079C217.588 95.3894 217.029 95.1647 216.516 94.8337C216.002 94.5027 215.592 94.0943 215.286 93.6084C214.979 93.1225 214.827 92.5941 214.83 92.0232V91.4174H215.573V92.0232ZM226.882 94.8064H225.392V94.0867H226.882V94.8064ZM225.616 99.0426H224.755V90.8845H225.616V99.0426ZM220.432 96.7423H219.571V91.6816H220.432V96.7423ZM220.241 96.2777C220.878 96.2777 221.51 96.2503 222.136 96.1957C222.761 96.138 223.397 96.0408 224.044 95.9042L224.149 96.633C223.493 96.7666 222.845 96.8607 222.204 96.9154C221.566 96.97 220.912 96.9974 220.241 96.9974H219.571V96.2777H220.241ZM234.547 96.2777H227.077V95.5716H234.547V96.2777ZM231.218 99.0471H230.366V96.0089H231.218V99.0471ZM233.604 94.5376H228.011V91.3218H233.604V94.5376ZM228.863 93.8589H232.743V92.0187H228.863V93.8589ZM241.547 96.8516H235.735V96.1592H241.547V96.8516ZM241.616 98.9242H235.667V98.2227H241.616V98.9242ZM237.803 98.8513H236.947V96.428H237.803V98.8513ZM240.34 98.8513H239.493V96.428H240.34V98.8513ZM239.056 96.3232H238.204V94.9658H239.056V96.3232ZM242.358 95.312H234.915V94.6151H242.358V95.312ZM238.942 91.3127C238.942 91.7773 238.793 92.2024 238.496 92.5881C238.201 92.9707 237.803 93.2911 237.302 93.5492C236.801 93.8043 236.248 93.9743 235.644 94.0594L235.321 93.3852C235.84 93.3184 236.32 93.1817 236.76 92.9753C237.203 92.7688 237.553 92.5213 237.808 92.2328C238.066 91.9413 238.195 91.6345 238.195 91.3127V90.9665H238.942V91.3127ZM239.083 91.3127C239.083 91.6285 239.212 91.9321 239.47 92.2237C239.728 92.5152 240.076 92.7657 240.513 92.9753C240.954 93.1817 241.434 93.3184 241.953 93.3852L241.639 94.0594C241.031 93.9743 240.477 93.8028 239.976 93.5446C239.475 93.2835 239.076 92.9616 238.778 92.579C238.483 92.1933 238.336 91.7712 238.336 91.3127V90.9665H239.083V91.3127Z" fill="#9B9B9B"/>
<rect x="170.389" y="129.091" width="14.7705" height="25.6541" fill="#E4E4E4" stroke="#DBDBDB" stroke-width="0.777397"/>
<path d="M178.398 144.808H177.304V139.823H177.27L175.855 140.729V139.731L177.354 138.762H178.398V144.808Z" fill="#808080"/>
<rect x="189.822" y="129.091" width="14.7705" height="25.6541" fill="#E4E4E4" stroke="#DBDBDB" stroke-width="0.777397"/>
<path d="M195.376 144.019L197.51 141.965C197.741 141.731 197.92 141.539 198.048 141.388C198.176 141.238 198.274 141.091 198.341 140.946C198.41 140.798 198.445 140.642 198.445 140.478C198.445 140.297 198.399 140.137 198.307 139.998C198.215 139.859 198.09 139.752 197.931 139.676C197.776 139.599 197.599 139.56 197.401 139.56C197.198 139.56 197.02 139.601 196.867 139.685C196.714 139.766 196.594 139.882 196.508 140.036C196.424 140.186 196.382 140.363 196.382 140.566H195.351C195.348 140.19 195.435 139.86 195.61 139.576C195.785 139.29 196.03 139.068 196.345 138.912C196.659 138.756 197.017 138.679 197.418 138.679C197.821 138.679 198.179 138.754 198.491 138.904C198.806 139.054 199.049 139.262 199.222 139.526C199.397 139.791 199.485 140.091 199.485 140.428C199.482 140.662 199.436 140.887 199.347 141.104C199.261 141.322 199.108 141.562 198.888 141.827C198.671 142.091 198.364 142.41 197.969 142.783L196.892 143.852V143.898H199.577V144.808H195.38L195.376 144.019Z" fill="#808080"/>
<rect x="209.256" y="129.091" width="14.7705" height="25.6541" fill="#E4E4E4" stroke="#DBDBDB" stroke-width="0.777397"/>
<path d="M216.619 144.892C216.193 144.892 215.812 144.819 215.475 144.674C215.141 144.53 214.877 144.327 214.682 144.065C214.49 143.8 214.39 143.501 214.381 143.167H215.479C215.488 143.329 215.543 143.471 215.646 143.593C215.749 143.713 215.884 143.806 216.051 143.873C216.218 143.94 216.406 143.973 216.615 143.973C216.838 143.973 217.037 143.935 217.212 143.86C217.388 143.785 217.524 143.679 217.621 143.543C217.719 143.407 217.766 143.251 217.763 143.075C217.763 142.892 217.715 142.729 217.617 142.587C217.52 142.445 217.375 142.335 217.183 142.257C216.994 142.176 216.77 142.136 216.511 142.136H215.972V141.297H216.511C216.722 141.297 216.912 141.26 217.079 141.188C217.246 141.113 217.374 141.008 217.463 140.875C217.555 140.741 217.6 140.588 217.6 140.416C217.6 140.248 217.56 140.101 217.479 139.973C217.401 139.842 217.289 139.74 217.141 139.668C216.996 139.596 216.827 139.56 216.632 139.56C216.44 139.562 216.263 139.597 216.101 139.664C215.94 139.731 215.809 139.827 215.709 139.952C215.609 140.077 215.556 140.223 215.55 140.39H214.502C214.511 140.056 214.609 139.76 214.799 139.501C214.991 139.239 215.247 139.038 215.567 138.896C215.887 138.751 216.243 138.679 216.636 138.679C217.037 138.679 217.389 138.754 217.692 138.904C217.999 139.052 218.235 139.253 218.402 139.509C218.569 139.763 218.651 140.044 218.649 140.353C218.651 140.576 218.607 140.777 218.515 140.958C218.426 141.139 218.296 141.29 218.127 141.409C217.957 141.529 217.762 141.612 217.542 141.66V141.706C217.823 141.745 218.064 141.828 218.264 141.956C218.468 142.082 218.621 142.246 218.724 142.449C218.827 142.649 218.878 142.876 218.878 143.13C218.878 143.464 218.781 143.764 218.586 144.031C218.394 144.299 218.125 144.509 217.78 144.662C217.438 144.815 217.051 144.892 216.619 144.892Z" fill="#808080"/>
<rect x="227.916" y="129.091" width="14.7705" height="25.6541" fill="#E4E4E4" stroke="#DBDBDB" stroke-width="0.777397"/>
<path d="M232.58 142.816L235.194 138.762H235.912V139.998H235.465L233.695 142.741V142.791H237.344V143.681H232.58V142.816ZM235.515 143.422L235.528 143.029V138.762H236.555V144.808H235.515V143.422Z" fill="#808080"/>
<rect x="247.35" y="129.091" width="14.7705" height="25.6541" fill="#E4E4E4" stroke="#DBDBDB" stroke-width="0.777397"/>
<path d="M254.661 144.892C254.263 144.892 253.904 144.818 253.584 144.67C253.264 144.52 253.01 144.315 252.824 144.057C252.64 143.795 252.543 143.498 252.531 143.167H253.588C253.599 143.329 253.653 143.473 253.751 143.601C253.851 143.729 253.98 143.831 254.139 143.906C254.298 143.979 254.472 144.013 254.661 144.011C254.884 144.011 255.083 143.96 255.258 143.86C255.433 143.76 255.571 143.622 255.671 143.447C255.772 143.272 255.822 143.073 255.822 142.85C255.822 142.624 255.77 142.423 255.667 142.244C255.567 142.063 255.426 141.923 255.245 141.823C255.065 141.72 254.859 141.668 254.628 141.668C254.388 141.665 254.185 141.707 254.018 141.793C253.851 141.877 253.72 142.008 253.625 142.186H252.619L252.982 138.762H256.552V139.672H253.88L253.696 141.28H253.746C253.869 141.143 254.035 141.033 254.243 140.95C254.452 140.864 254.679 140.819 254.924 140.816C255.291 140.816 255.624 140.903 255.922 141.075C256.223 141.245 256.456 141.483 256.623 141.789C256.793 142.095 256.878 142.439 256.878 142.821C256.878 143.219 256.783 143.575 256.594 143.89C256.405 144.204 256.142 144.45 255.805 144.629C255.471 144.804 255.09 144.892 254.661 144.892Z" fill="#808080"/>
<rect x="266.008" y="129.091" width="14.7705" height="25.6541" fill="#E4E4E4" stroke="#DBDBDB" stroke-width="0.777397"/>
<rect x="284.686" y="129.389" width="14.7705" height="25.6541" fill="#E4E4E4" stroke="#DBDBDB" stroke-width="0.777397"/>
<path d="M273.44 144.892C273.012 144.889 272.62 144.793 272.267 144.604C271.913 144.411 271.627 144.098 271.407 143.664C271.187 143.227 271.078 142.658 271.081 141.956C271.081 141.271 271.18 140.683 271.378 140.19C271.578 139.697 271.859 139.323 272.221 139.067C272.583 138.808 273.01 138.679 273.503 138.679C273.881 138.679 274.222 138.752 274.526 138.9C274.832 139.045 275.077 139.248 275.261 139.509C275.447 139.771 275.563 140.065 275.607 140.39H274.534C274.495 140.232 274.43 140.095 274.338 139.981C274.246 139.864 274.129 139.775 273.987 139.714C273.845 139.653 273.684 139.622 273.503 139.622C273.211 139.622 272.963 139.704 272.76 139.869C272.556 140.03 272.402 140.265 272.296 140.574C272.19 140.88 272.137 141.246 272.137 141.672H272.196C272.296 141.497 272.426 141.347 272.584 141.221C272.743 141.093 272.921 140.997 273.119 140.933C273.316 140.869 273.525 140.837 273.745 140.837C274.104 140.837 274.43 140.922 274.722 141.092C275.014 141.262 275.244 141.497 275.411 141.798C275.581 142.095 275.666 142.432 275.666 142.808C275.666 143.206 275.572 143.564 275.386 143.881C275.202 144.196 274.941 144.443 274.601 144.624C274.264 144.805 273.877 144.894 273.44 144.892ZM273.436 144.011C273.656 144.011 273.855 143.959 274.033 143.856C274.214 143.75 274.356 143.608 274.459 143.43C274.562 143.249 274.614 143.05 274.614 142.833C274.614 142.619 274.563 142.423 274.463 142.244C274.363 142.066 274.224 141.926 274.046 141.823C273.868 141.72 273.667 141.668 273.444 141.668C273.224 141.668 273.024 141.721 272.843 141.827C272.665 141.93 272.522 142.072 272.413 142.253C272.307 142.434 272.253 142.629 272.25 142.837C272.25 143.049 272.303 143.244 272.409 143.422C272.515 143.6 272.657 143.743 272.835 143.852C273.013 143.958 273.213 144.011 273.436 144.011Z" fill="#808080"/>
<path d="M292.698 140.008V139.97H289.654V139.06H293.826V139.991L291.204 145.106H290.076L292.698 140.008Z" fill="#808080"/>
<rect x="170.389" y="178.389" width="14.7705" height="25.6541" fill="#E4E4E4" stroke="#DBDBDB" stroke-width="0.777397"/>
<path d="M178.139 194.084C177.696 194.084 177.301 194.01 176.953 193.862C176.605 193.715 176.332 193.513 176.135 193.257C175.94 192.998 175.842 192.706 175.842 192.38C175.842 192.129 175.899 191.896 176.013 191.678C176.128 191.461 176.283 191.282 176.481 191.14C176.679 190.998 176.897 190.909 177.137 190.873V190.835C176.928 190.79 176.743 190.704 176.581 190.576C176.423 190.448 176.297 190.289 176.206 190.1C176.116 189.911 176.072 189.708 176.072 189.49C176.072 189.184 176.161 188.909 176.339 188.664C176.517 188.416 176.762 188.223 177.074 188.083C177.389 187.941 177.743 187.87 178.139 187.87C178.528 187.87 178.881 187.941 179.195 188.083C179.51 188.223 179.756 188.416 179.934 188.664C180.115 188.909 180.206 189.184 180.206 189.49C180.206 189.708 180.16 189.911 180.068 190.1C179.976 190.289 179.849 190.448 179.688 190.576C179.526 190.704 179.343 190.79 179.137 190.835V190.873C179.373 190.909 179.59 190.998 179.788 191.14C179.988 191.282 180.146 191.461 180.26 191.678C180.377 191.896 180.435 192.129 180.435 192.38C180.435 192.706 180.336 192.998 180.139 193.257C179.944 193.513 179.671 193.715 179.32 193.862C178.97 194.01 178.576 194.084 178.139 194.084ZM178.139 193.223C178.373 193.223 178.577 193.184 178.753 193.106C178.931 193.026 179.069 192.916 179.166 192.777C179.263 192.635 179.312 192.47 179.312 192.284C179.312 192.097 179.262 191.929 179.162 191.779C179.062 191.626 178.921 191.506 178.74 191.42C178.562 191.333 178.361 191.29 178.139 191.29C177.913 191.29 177.711 191.333 177.533 191.42C177.358 191.503 177.219 191.621 177.116 191.774C177.016 191.925 176.965 192.095 176.965 192.284C176.965 192.468 177.013 192.63 177.107 192.772C177.205 192.912 177.341 193.022 177.517 193.102C177.695 193.183 177.902 193.223 178.139 193.223ZM178.139 190.484C178.331 190.484 178.503 190.447 178.657 190.372C178.81 190.294 178.929 190.188 179.016 190.054C179.102 189.921 179.145 189.767 179.145 189.595C179.145 189.425 179.102 189.273 179.016 189.14C178.932 189.006 178.814 188.903 178.661 188.831C178.508 188.758 178.334 188.722 178.139 188.722C177.938 188.722 177.763 188.758 177.613 188.831C177.462 188.903 177.344 189.006 177.258 189.14C177.174 189.273 177.132 189.425 177.132 189.595C177.132 189.767 177.176 189.921 177.262 190.054C177.348 190.188 177.467 190.294 177.617 190.372C177.77 190.447 177.944 190.484 178.139 190.484Z" fill="#808080"/>
<rect x="189.822" y="178.389" width="14.7705" height="25.6541" fill="#E4E4E4" stroke="#DBDBDB" stroke-width="0.777397"/>
<path d="M197.528 187.977C197.954 187.979 198.344 188.075 198.698 188.265C199.051 188.454 199.336 188.766 199.553 189.2C199.773 189.634 199.883 190.201 199.883 190.899C199.883 191.584 199.786 192.174 199.591 192.67C199.396 193.163 199.115 193.54 198.748 193.801C198.383 194.06 197.954 194.19 197.462 194.19C197.077 194.19 196.734 194.116 196.43 193.968C196.13 193.818 195.886 193.613 195.7 193.355C195.516 193.096 195.402 192.799 195.357 192.465H196.426C196.465 192.624 196.532 192.762 196.626 192.879C196.721 192.996 196.838 193.086 196.977 193.15C197.119 193.214 197.281 193.246 197.462 193.246C197.751 193.246 197.997 193.164 198.201 193C198.407 192.835 198.563 192.599 198.668 192.29C198.774 191.981 198.828 191.611 198.831 191.179H198.768C198.668 191.352 198.539 191.501 198.38 191.626C198.224 191.748 198.046 191.843 197.846 191.91C197.648 191.977 197.439 192.01 197.219 192.01C196.86 192.01 196.535 191.927 196.242 191.76C195.953 191.59 195.723 191.356 195.553 191.058C195.384 190.76 195.299 190.425 195.299 190.052C195.299 189.657 195.391 189.302 195.574 188.987C195.761 188.67 196.022 188.422 196.359 188.244C196.699 188.063 197.089 187.974 197.528 187.977ZM197.528 188.853C197.308 188.853 197.108 188.906 196.927 189.012C196.749 189.115 196.608 189.257 196.505 189.438C196.402 189.616 196.352 189.811 196.355 190.023C196.355 190.237 196.405 190.433 196.505 190.611C196.606 190.787 196.743 190.926 196.919 191.029C197.094 191.132 197.293 191.183 197.516 191.183C197.733 191.183 197.932 191.129 198.113 191.021C198.297 190.912 198.441 190.769 198.547 190.59C198.653 190.412 198.706 190.22 198.706 190.014C198.706 189.808 198.654 189.616 198.551 189.438C198.448 189.26 198.308 189.118 198.13 189.012C197.951 188.906 197.751 188.853 197.528 188.853Z" fill="#808080"/>
<rect x="208.252" y="178.389" width="14.7705" height="25.6541" fill="#E4E4E4" stroke="#DBDBDB" stroke-width="0.777397"/>
<path d="M213.82 194.106H212.726V189.121H212.692L211.277 190.027V189.029L212.776 188.06H213.82V194.106ZM217.305 194.19C216.821 194.19 216.405 194.069 216.057 193.826C215.712 193.581 215.446 193.228 215.259 192.766C215.075 192.301 214.984 191.74 214.984 191.083C214.984 190.432 215.075 189.874 215.259 189.409C215.446 188.941 215.712 188.586 216.057 188.344C216.405 188.099 216.821 187.977 217.305 187.977C217.784 187.977 218.199 188.099 218.549 188.344C218.9 188.586 219.167 188.941 219.351 189.409C219.535 189.874 219.627 190.432 219.627 191.083C219.627 191.74 219.535 192.301 219.351 192.766C219.17 193.231 218.904 193.584 218.554 193.826C218.206 194.069 217.79 194.19 217.305 194.19ZM217.305 193.275C217.559 193.275 217.777 193.193 217.961 193.029C218.147 192.862 218.288 192.616 218.382 192.29C218.48 191.961 218.529 191.559 218.529 191.083C218.529 190.61 218.479 190.209 218.378 189.881C218.281 189.549 218.14 189.3 217.957 189.133C217.776 188.963 217.559 188.879 217.305 188.879C217.052 188.879 216.833 188.963 216.65 189.133C216.469 189.3 216.328 189.549 216.228 189.881C216.128 190.209 216.078 190.61 216.078 191.083C216.078 191.559 216.128 191.961 216.228 192.29C216.328 192.616 216.469 192.862 216.65 193.029C216.831 193.193 217.049 193.275 217.305 193.275Z" fill="#808080"/>
<rect x="227.252" y="178.389" width="14.7705" height="25.6541" fill="#E4E4E4" stroke="#DBDBDB" stroke-width="0.777397"/>
<path d="M233.82 194H232.726V189.014H232.692L231.277 189.921V188.923L232.776 187.954H233.82V194ZM237.531 194H236.437V189.014H236.403L234.988 189.921V188.923L236.487 187.954H237.531V194Z" fill="#808080"/>
<rect x="246.252" y="178.389" width="14.7705" height="25.6541" fill="#E4E4E4" stroke="#DBDBDB" stroke-width="0.777397"/>
<path d="M251.82 194H250.726V189.014H250.692L249.277 189.921V188.923L250.776 187.954H251.82V194ZM253.075 193.211L255.209 191.157C255.44 190.923 255.62 190.731 255.748 190.58C255.876 190.43 255.973 190.282 256.04 190.138C256.11 189.99 256.144 189.834 256.144 189.67C256.144 189.489 256.099 189.329 256.007 189.19C255.915 189.051 255.79 188.944 255.631 188.868C255.475 188.79 255.298 188.751 255.101 188.751C254.897 188.751 254.719 188.793 254.566 188.877C254.413 188.957 254.293 189.074 254.207 189.227C254.124 189.378 254.082 189.555 254.082 189.758H253.05C253.048 189.382 253.134 189.052 253.309 188.768C253.485 188.481 253.73 188.26 254.044 188.104C254.359 187.948 254.716 187.87 255.117 187.87C255.521 187.87 255.879 187.946 256.19 188.096C256.505 188.246 256.749 188.454 256.921 188.718C257.096 188.982 257.184 189.283 257.184 189.62C257.181 189.854 257.135 190.079 257.046 190.296C256.96 190.513 256.807 190.754 256.587 191.019C256.37 191.283 256.064 191.602 255.668 191.975L254.591 193.044V193.09H257.276V194H253.08L253.075 193.211Z" fill="#808080"/>
<rect x="265.389" y="178.389" width="14.7705" height="25.6541" fill="#E4E4E4" stroke="#DBDBDB" stroke-width="0.777397"/>
<path d="M270.956 194H269.862V189.014H269.829L268.413 189.921V188.923L269.912 187.954H270.956V194ZM274.409 194.084C273.983 194.084 273.601 194.011 273.264 193.866C272.93 193.722 272.666 193.518 272.471 193.257C272.279 192.992 272.179 192.693 272.17 192.359H273.269C273.277 192.52 273.333 192.662 273.436 192.785C273.539 192.905 273.674 192.998 273.841 193.065C274.008 193.132 274.196 193.165 274.404 193.165C274.627 193.165 274.826 193.127 275.001 193.052C275.177 192.977 275.313 192.871 275.411 192.735C275.508 192.598 275.555 192.443 275.553 192.267C275.553 192.083 275.504 191.921 275.406 191.779C275.309 191.637 275.164 191.527 274.972 191.449C274.783 191.368 274.559 191.328 274.3 191.328H273.761V190.488H274.3C274.512 190.488 274.701 190.452 274.868 190.38C275.035 190.305 275.163 190.2 275.252 190.067C275.344 189.933 275.39 189.78 275.39 189.607C275.39 189.44 275.349 189.293 275.269 189.165C275.191 189.034 275.078 188.932 274.93 188.86C274.786 188.788 274.616 188.751 274.421 188.751C274.229 188.754 274.052 188.789 273.891 188.856C273.729 188.923 273.598 189.019 273.498 189.144C273.398 189.269 273.345 189.415 273.34 189.582H272.292C272.3 189.248 272.399 188.952 272.588 188.693C272.78 188.431 273.036 188.229 273.356 188.088C273.676 187.943 274.033 187.87 274.425 187.87C274.826 187.87 275.178 187.946 275.482 188.096C275.788 188.243 276.024 188.445 276.191 188.701C276.358 188.955 276.441 189.236 276.438 189.545C276.441 189.767 276.396 189.969 276.304 190.15C276.215 190.331 276.086 190.481 275.916 190.601C275.746 190.721 275.551 190.804 275.331 190.852V190.898C275.612 190.937 275.853 191.02 276.054 191.148C276.257 191.273 276.41 191.438 276.513 191.641C276.616 191.841 276.667 192.068 276.667 192.321C276.667 192.655 276.57 192.956 276.375 193.223C276.183 193.491 275.914 193.701 275.569 193.854C275.227 194.007 274.84 194.084 274.409 194.084Z" fill="#808080"/>
</g>
</svg>
